<svg xmlns="http://www.w3.org/2000/svg" width="60" height="60" viewBox="0 0 60 60"><defs><style>.a{fill:#fff;stroke:#6d3eb7;}.b{fill:#8263fc;}.c{stroke:none;}.d{fill:none;}</style></defs><g transform="translate(-257 3753)"><g class="a" transform="translate(257 -3753)"><circle class="c" cx="30" cy="30" r="30"/><circle class="d" cx="30" cy="30" r="29.5"/></g><g transform="translate(270.88 -3737.374)"><path class="b" d="M22.038,28.693A12.408,12.408,0,0,1,16.591,26.5,30.437,30.437,0,0,1,11.47,22a75.457,75.457,0,0,1-5.463-6.22,19.083,19.083,0,0,1-3.117-5.8A9.15,9.15,0,0,1,2.55,5.747,7.476,7.476,0,0,1,4.963,1.523,10.3,10.3,0,0,1,6.6.324,2.114,2.114,0,0,1,8.928.361,8.339,8.339,0,0,1,12.479,4.62a1.541,1.541,0,0,1-.17,1.559c-.411.555-.84,1.1-1.254,1.651-.365.492-.745.975-1.07,1.492A1.374,1.374,0,0,0,10,10.931c.82,1.15,1.613,2.335,2.5,3.43a43.635,43.635,0,0,0,5.337,5.53c.431.371.894.7,1.354,1.035a1.3,1.3,0,0,0,1.395.127,15.683,15.683,0,0,0,1.438-.805c.644-.411,1.277-.834,1.909-1.239a1.679,1.679,0,0,1,1.754-.035,8.54,8.54,0,0,1,3.8,3.738,2.3,2.3,0,0,1-.207,2.608,7.894,7.894,0,0,1-6.326,3.433,8.983,8.983,0,0,1-.917-.06Z" transform="translate(0 0)"/></g></g></svg>