<svg xmlns="http://www.w3.org/2000/svg" width="64" height="64" viewBox="0 0 64 64">
  <g id="Group_39139" data-name="Group 39139" transform="translate(-145 -612)">
    <g id="Ellipse_1310" data-name="Ellipse 1310" transform="translate(145 612)" fill="#fff" stroke="#d9beff" stroke-width="1">
      <circle cx="32" cy="32" r="32" stroke="none"/>
      <circle cx="32" cy="32" r="31.5" fill="none"/>
    </g>
    <g id="noun_profile_157815" transform="translate(152.089 617.074)">
      <g id="Group_39138" data-name="Group 39138" transform="translate(3.086 6.853)">
        <path id="Path_55905" data-name="Path 55905" d="M33.213,31.536c1.71,2.735,5.6,2.7,5.612,2.7s3.9.033,5.611-2.7c1.675-2.68,3.829-7.52,4.064-10.8s-.428-8.121-1.808-10.131c-2.587-3.771-7.86-3.756-7.867-3.756s-5.281-.016-7.868,3.756c-1.379,2.01-2.041,6.855-1.807,10.131S31.539,28.856,33.213,31.536Z" transform="translate(-17 -6.853)" fill="#9a7bff"/>
        <path id="Path_55906" data-name="Path 55906" d="M46.648,74.039a22.968,22.968,0,0,0-1.114-4.458,8.779,8.779,0,0,0-5.1-5.452,49.46,49.46,0,0,0-7.85-1.967c-.033.054-.071.124-.1.176-2.3,3.681-7.029,3.787-7.561,3.787H24.9c-.532,0-5.261-.106-7.561-3.787-.033-.052-.07-.122-.1-.176a49.562,49.562,0,0,0-7.85,1.967,8.781,8.781,0,0,0-5.1,5.452,22.963,22.963,0,0,0-1.113,4.458c-.034.237-.063.459-.088.669a1.954,1.954,0,0,0,1.949,1.87H44.786a1.953,1.953,0,0,0,1.949-1.87C46.71,74.5,46.681,74.275,46.648,74.039Z" transform="translate(-3.086 -36.432)" fill="#9a7bff"/>
      </g>
    </g>
  </g>
</svg>
